<?xml version="1.0" standalone="no"?>
<!DOCTYPE svg PUBLIC "-//W3C//DTD SVG 20010904//EN"
 "http://www.w3.org/TR/2001/REC-SVG-20010904/DTD/svg10.dtd">
<svg version="1.0" xmlns="http://www.w3.org/2000/svg"
 width="388.000000pt" height="388.000000pt" viewBox="0 0 388.000000 388.000000"
 preserveAspectRatio="xMidYMid meet">
<metadata>
Created by potrace 1.11, written by Peter Selinger 2001-2013
</metadata>
<g transform="translate(0.000000,388.000000) scale(0.100000,-0.100000)"
fill="#000000" stroke="none">
<path d="M2068 3735 c-2 -1 -43 -5 -93 -9 -439 -31 -892 -251 -1218 -592 -95
-100 -143 -163 -186 -246 -80 -153 -109 -298 -87 -425 7 -36 15 -32 -84 -39
-50 -3 -135 22 -165 50 -50 46 -65 149 -31 213 20 39 58 72 149 127 153 94
228 199 261 362 21 107 37 137 113 211 56 55 63 65 53 83 -6 11 -14 20 -19 20
-10 0 -148 -116 -177 -149 -34 -38 -72 -112 -95 -182 -40 -121 -81 -165 -222
-235 -107 -54 -175 -115 -214 -192 -24 -50 -28 -68 -27 -142 0 -68 5 -95 24
-133 46 -96 144 -172 251 -196 46 -10 172 -8 231 3 32 7 38 5 53 -18 12 -18
14 -30 7 -39 -41 -52 -73 -239 -53 -313 38 -142 191 -207 327 -138 30 15 54
31 54 36 0 4 5 8 10 8 6 0 10 -8 10 -17 0 -36 49 -121 84 -148 51 -39 122 -56
177 -44 59 14 124 53 145 88 l17 29 36 -28 c81 -63 190 -63 276 0 36 26 76 86
69 104 -8 20 -27 20 -79 1 -137 -49 -212 28 -181 187 6 34 11 39 49 48 23 6
63 17 89 24 41 12 51 11 85 -4 61 -27 124 -39 193 -36 158 7 258 66 315 188
l22 47 43 -60 c87 -120 265 -281 305 -275 29 4 29 20 -1 99 -28 71 -31 93 -21
152 2 17 -1 53 -8 80 -7 28 -12 51 -11 53 9 8 97 -51 152 -101 60 -55 144
-169 158 -213 4 -12 -4 -46 -19 -83 -31 -76 -59 -192 -80 -328 -8 -56 -22
-122 -31 -145 -17 -43 -126 -215 -161 -253 -79 -87 -208 -261 -223 -301 -15
-38 -15 -91 0 -108 13 -17 1 -22 -70 -31 -25 -3 -57 -8 -73 -11 -38 -8 -173
-7 -227 1 -195 28 -363 115 -415 215 -26 50 -44 120 -50 187 -13 169 -17 201
-27 243 -14 60 -67 169 -88 180 -27 14 -37 -1 -54 -85 -39 -188 -122 -270
-317 -311 -177 -37 -300 -14 -449 85 -57 38 -166 141 -195 185 -19 28 -52 35
-61 11 -3 -8 8 -42 26 -76 145 -286 506 -616 755 -693 93 -28 208 -86 360
-182 214 -134 339 -184 522 -209 26 -4 59 -9 73 -11 14 -2 84 -4 155 -5 239
-1 408 38 619 142 96 47 297 175 344 219 21 20 22 20 22 2 0 -11 -11 -54 -25
-96 -41 -125 -13 -144 116 -79 101 50 211 161 261 263 51 103 67 181 66 314
-1 109 0 112 36 185 73 143 129 314 162 492 19 99 26 394 13 489 -5 36 -12 83
-15 104 -26 181 -132 458 -239 626 -22 36 -44 70 -48 76 -5 8 12 10 56 7 34
-3 74 0 89 6 35 13 58 59 62 124 8 162 -123 330 -349 446 -78 41 -231 95 -297
106 -18 3 -44 7 -58 10 -120 22 -358 21 -432 -1 -10 -3 -62 4 -115 15 -54 11
-127 22 -163 26 -71 7 -238 14 -242 10z m-13 -1442 c-22 -36 -86 -93 -104 -93
-21 0 90 119 113 120 4 0 1 -12 -9 -27z m-1257 -202 c20 -10 63 -27 95 -37
l59 -18 -7 -36 c-3 -19 -9 -61 -12 -92 l-6 -58 -38 -1 c-22 -1 -47 -2 -56 -2
-41 -1 -84 16 -108 45 -22 26 -26 38 -22 77 4 41 42 141 53 141 3 0 21 -8 42
-19z m502 -163 c0 -84 -2 -73 21 -133 10 -27 19 -51 19 -52 0 -1 -25 -7 -55
-14 -104 -23 -169 10 -178 91 -4 39 18 147 34 166 7 9 35 12 85 11 l74 -2 0
-67z"/>
</g>
</svg>
