<?xml version="1.0" standalone="no"?>
<!DOCTYPE svg PUBLIC "-//W3C//DTD SVG 20010904//EN"
 "http://www.w3.org/TR/2001/REC-SVG-20010904/DTD/svg10.dtd">
<svg version="1.0" xmlns="http://www.w3.org/2000/svg"
 width="256.000000pt" height="256.000000pt" viewBox="0 0 256.000000 256.000000"
 preserveAspectRatio="xMidYMid meet">
<metadata>
Created by potrace 1.14, written by Peter Selinger 2001-2017
</metadata>
<g transform="translate(0.000000,256.000000) scale(0.100000,-0.100000)"
fill="#000000" stroke="none">
<path d="M855 2440 c-3 -5 -3 -10 1 -10 3 0 -4 -8 -16 -18 -18 -14 -19 -19 -7
-19 9 0 14 4 11 8 -2 4 1 9 8 11 6 2 12 12 14 21 3 19 -2 22 -11 7z"/>
<path d="M976 2438 c3 -5 10 -6 15 -3 13 9 11 12 -6 12 -8 0 -12 -4 -9 -9z"/>
<path d="M775 2430 c-3 -6 1 -7 9 -4 18 7 21 14 7 14 -6 0 -13 -4 -16 -10z"/>
<path d="M686 2422 c-3 -5 1 -9 9 -9 8 0 12 4 9 9 -3 4 -7 8 -9 8 -2 0 -6 -4
-9 -8z"/>
<path d="M726 2415 c-3 -9 -14 -13 -28 -11 -13 3 -23 5 -23 6 0 1 -12 4 -27 6
-23 4 -26 2 -21 -12 4 -12 3 -15 -5 -10 -9 5 -9 1 -2 -18 6 -17 6 -26 0 -26
-6 0 -10 -5 -10 -11 0 -5 5 -7 11 -3 12 7 12 4 -4 -63 -3 -12 -10 -30 -15 -40
-5 -10 -7 -24 -5 -30 3 -7 0 -13 -7 -13 -6 0 -9 4 -5 9 3 6 -3 14 -13 20 -14
7 -19 6 -19 -4 0 -7 6 -11 12 -8 16 5 14 -25 -3 -55 -7 -12 -18 -19 -24 -16
-6 4 -9 3 -5 -2 3 -5 2 -28 -3 -52 -4 -27 -4 -45 3 -49 6 -4 7 -1 2 7 -5 9 -4
11 3 6 16 -10 15 -51 -1 -65 -8 -6 -16 -8 -20 -5 -3 3 -4 -2 -2 -13 2 -10 4
-21 4 -25 1 -4 11 3 24 15 12 12 18 25 14 28 -5 4 -4 10 2 13 10 6 15 -6 12
-26 0 -5 4 -8 10 -8 5 0 7 -5 4 -10 -4 -6 -1 -17 5 -25 7 -9 8 -15 2 -15 -11
0 -26 30 -23 45 1 6 -4 4 -11 -4 -10 -11 -10 -14 0 -18 6 -3 12 -12 12 -20 0
-13 -2 -14 -17 -2 -16 12 -17 12 -6 -2 7 -9 11 -19 8 -23 -3 -3 1 -2 7 4 23
19 28 10 14 -25 -8 -19 -11 -35 -7 -35 4 0 8 -15 7 -32 -1 -25 -5 -33 -18 -32
-10 1 -15 -3 -12 -8 3 -5 12 -7 20 -4 11 4 14 -1 12 -17 -2 -12 -7 -28 -11
-35 -6 -8 -4 -12 5 -10 7 2 12 -3 10 -9 -1 -7 2 -13 8 -13 12 0 13 13 3 24
-11 10 -12 37 -2 30 5 -3 7 -10 4 -15 -4 -5 1 -12 9 -15 9 -3 14 -10 11 -14
-2 -4 4 -15 15 -25 11 -10 20 -23 20 -29 0 -6 -7 -3 -14 7 -8 10 -17 14 -20 9
-3 -5 6 -15 19 -22 14 -7 25 -17 25 -22 0 -5 -3 -7 -8 -4 -4 2 -16 -2 -27 -10
-19 -14 -18 -15 15 -9 28 5 33 4 23 -6 -7 -7 -13 -17 -13 -23 0 -5 3 -6 7 -3
3 4 16 -6 27 -22 20 -26 26 -31 42 -31 4 0 2 -6 -4 -13 -6 -7 -9 -25 -8 -40 2
-15 -1 -30 -5 -33 -5 -3 -9 -10 -9 -15 0 -6 4 -8 8 -5 4 2 8 -4 9 -14 1 -11
-2 -22 -8 -25 -5 -3 -6 2 -3 12 5 15 4 15 -4 3 -13 -18 -6 -31 13 -23 8 3 15
1 15 -3 0 -5 11 -22 25 -38 14 -16 25 -23 25 -16 0 7 2 11 5 8 12 -11 -7 -37
-22 -31 -13 5 -15 2 -9 -18 14 -47 15 -59 5 -54 -5 4 -9 1 -9 -4 0 -6 5 -11
10 -11 6 0 10 -6 10 -14 0 -7 6 -19 14 -26 8 -6 13 -17 10 -24 -3 -8 2 -16 10
-19 11 -5 14 -15 11 -39 -4 -26 -3 -29 4 -13 8 16 10 17 10 3 1 -9 7 -19 14
-21 6 -3 3 -6 -8 -7 -16 -1 -14 -4 10 -15 17 -8 24 -14 16 -15 -8 0 -3 -8 12
-20 17 -14 24 -28 22 -46 -1 -16 4 -30 16 -37 11 -7 19 -15 19 -20 0 -4 -4 -5
-10 -2 -11 7 -14 -8 -3 -19 10 -9 13 -36 4 -36 -4 0 -13 6 -20 12 -11 10 -10
8 0 -10 8 -12 17 -22 22 -22 4 0 5 -5 2 -10 -4 -6 -12 -7 -18 -3 -8 5 -8 2 0
-9 7 -8 9 -18 5 -22 -4 -4 0 -6 8 -4 8 1 14 -2 13 -9 -1 -6 8 -10 23 -8 24 2
51 -25 37 -39 -3 -3 -1 -6 6 -6 8 0 10 7 6 21 -5 16 -4 20 6 15 8 -3 22 -9 32
-12 9 -4 17 -10 17 -16 0 -5 -10 -3 -22 3 -13 6 -20 8 -16 4 4 -4 3 -16 -3
-27 -7 -13 -7 -23 0 -32 6 -7 8 -15 5 -19 -3 -3 4 -11 16 -17 15 -8 20 -8 16
-1 -5 7 3 11 21 12 27 1 26 1 -7 11 -19 5 -39 13 -43 17 -12 12 4 43 19 37 7
-3 18 3 23 12 7 11 11 12 11 4 0 -7 4 -11 9 -7 6 3 15 -4 21 -15 6 -11 16 -17
22 -14 7 4 8 3 4 -4 -4 -7 -2 -12 3 -12 6 0 11 -7 11 -15 0 -8 5 -15 11 -15 5
0 8 -3 6 -7 -3 -5 6 -9 19 -10 53 -5 59 -6 71 -15 6 -5 9 -17 6 -25 -4 -11 -2
-14 5 -9 9 5 9 0 2 -19 -9 -23 -8 -25 7 -17 19 11 43 1 85 -37 24 -21 29 -59
6 -45 -5 3 -7 13 -4 21 4 9 2 11 -6 7 -7 -5 -8 -3 -3 7 8 12 6 12 -8 0 -18
-14 -24 -26 -9 -17 5 3 15 -6 22 -19 14 -25 32 -34 28 -14 -2 6 3 14 10 16 8
3 10 -1 6 -12 -4 -9 -2 -15 4 -13 10 3 12 -1 12 -21 0 -5 -10 -13 -21 -16 -12
-4 -18 -10 -13 -14 5 -3 10 -14 12 -23 4 -23 -25 -13 -31 10 -4 16 -5 16 -6 0
-2 -25 52 -48 64 -27 9 14 23 11 21 -6 -1 -8 -5 -17 -8 -21 -10 -9 34 -49 57
-51 11 -2 55 -4 97 -6 42 -1 80 -6 85 -11 5 -5 2 -6 -6 -1 -10 6 -12 4 -6 -5
7 -11 10 -10 19 1 16 20 93 11 88 -11 -1 -6 2 -9 8 -5 6 3 8 11 5 16 -4 5 1 9
10 9 10 0 13 -5 9 -12 -6 -10 -5 -10 7 -2 8 7 26 12 41 12 21 0 26 -5 22 -21
-2 -11 0 -16 4 -13 4 4 7 13 7 19 0 7 9 13 20 16 11 2 25 10 31 19 6 8 16 12
22 8 7 -4 12 -2 12 3 0 6 -7 11 -16 11 -8 0 -12 5 -9 10 4 6 12 7 18 3 8 -5 8
-2 0 9 -7 8 -9 19 -5 23 4 5 1 5 -6 1 -7 -4 -10 -12 -7 -17 4 -5 1 -9 -4 -9
-6 0 -11 7 -11 16 0 9 -5 12 -12 8 -8 -5 -8 -1 1 10 13 15 13 19 0 27 -10 6
-11 9 -1 9 7 0 10 5 6 12 -4 7 -3 8 4 4 13 -8 35 28 24 39 -4 5 -2 5 5 1 8 -4
11 4 9 26 -4 46 10 63 39 44 14 -10 26 -11 36 -5 11 8 10 9 -6 7 -12 -2 -19 2
-17 10 1 8 -2 11 -7 8 -5 -4 -12 -2 -15 3 -6 9 30 25 49 21 6 -1 4 4 -2 11 -7
7 -13 21 -13 31 0 10 -5 17 -12 16 -11 -3 -13 10 -9 42 0 5 7 7 15 4 8 -3 17
0 21 6 3 6 3 10 -2 9 -20 -3 -34 2 -28 11 4 6 12 7 18 3 7 -4 6 0 -2 10 -7 9
-19 17 -25 17 -6 0 -4 -5 4 -10 14 -9 7 -15 -14 -11 -5 1 -4 -4 3 -13 6 -8 8
-16 4 -19 -5 -3 -13 6 -20 19 -6 13 -7 22 -2 18 5 -3 9 0 9 5 0 6 -5 11 -11
11 -5 0 -8 4 -4 10 3 5 13 6 23 3 18 -7 17 -5 -12 17 -13 10 -17 10 -12 3 12
-21 1 -15 -23 13 -18 21 -19 25 -5 22 9 -2 18 3 20 10 1 7 0 8 -2 3 -9 -16
-46 7 -77 47 l-28 37 21 17 c28 23 18 23 -18 1 -15 -9 -24 -13 -20 -8 4 4 -2
16 -14 26 -11 11 -16 19 -11 19 6 0 14 7 17 16 5 14 4 15 -9 4 -19 -16 -47 4
-38 27 4 10 2 14 -4 10 -14 -9 -41 24 -38 45 2 10 -1 18 -6 18 -5 0 -9 -5 -9
-12 0 -6 -6 -3 -14 7 -8 11 -12 23 -10 27 3 5 0 8 -6 8 -6 0 -9 4 -6 9 3 5 -3
11 -14 14 -11 3 -23 13 -27 24 -3 10 -10 20 -13 23 -12 9 -22 62 -11 55 7 -4
8 1 4 11 -4 10 -2 15 3 11 6 -3 11 4 11 16 2 20 1 20 -8 4 -13 -23 -26 -22
-34 4 -6 17 -9 19 -16 8 -5 -8 -9 -10 -9 -5 0 5 -7 3 -15 -4 -13 -11 -22 -1
-12 14 1 2 -10 14 -25 26 -16 12 -28 27 -28 33 0 7 5 6 11 -3 9 -13 10 -13 6
0 -2 8 -10 15 -18 15 -19 1 -39 14 -39 26 0 5 11 15 25 21 31 14 32 23 3 25
-16 2 -19 0 -10 -6 11 -6 9 -9 -5 -13 -11 -3 -28 1 -38 8 -12 9 -14 14 -6 14
11 0 11 3 1 15 -7 8 -17 12 -24 9 -6 -3 3 6 19 21 l30 26 -37 -15 c-33 -14
-36 -14 -34 1 2 9 11 20 22 24 13 5 14 8 4 8 -18 1 -51 36 -43 45 4 3 1 6 -5
6 -6 0 -10 -9 -9 -19 0 -11 5 -17 11 -14 5 4 6 1 1 -7 -5 -8 -4 -11 3 -6 6 3
14 1 17 -5 5 -7 0 -10 -11 -7 -10 2 -24 13 -30 26 -6 12 -15 19 -20 14 -5 -4
-1 2 9 14 9 11 17 25 17 30 0 5 -5 1 -11 -8 -5 -10 -14 -18 -19 -18 -12 0 -45
49 -55 80 -7 22 -6 23 8 11 9 -7 14 -17 11 -22 -3 -5 0 -9 5 -9 6 0 10 -3 10
-7 -1 -5 -1 -15 0 -23 1 -13 3 -13 12 0 9 13 10 12 5 -3 -3 -10 -2 -15 3 -12
13 7 9 44 -4 42 -5 -1 -9 3 -9 8 1 6 -12 21 -29 35 -17 14 -28 20 -25 15 4 -6
2 -17 -4 -25 -8 -12 -9 -12 -4 2 3 10 1 20 -4 23 -6 4 -10 0 -10 -7 0 -10 -3
-9 -9 1 -6 10 -5 22 5 35 16 23 18 36 5 36 -5 0 -11 -9 -14 -20 -3 -11 -11
-20 -19 -19 -10 0 -10 2 0 6 6 2 12 11 12 19 0 8 -6 14 -12 14 -9 0 -10 3 -2
8 6 4 10 15 8 25 -1 9 2 15 6 12 5 -3 7 9 5 26 -2 18 -1 37 2 43 4 6 7 22 7
37 1 14 7 33 15 42 7 10 9 17 3 17 -11 0 -11 25 0 36 4 3 4 13 1 21 -8 20 17
35 34 21 9 -7 13 -7 13 1 0 6 -5 11 -11 11 -5 0 -7 6 -3 13 5 7 1 6 -10 -2
-16 -13 -17 -13 -14 5 1 10 8 22 13 27 6 4 4 11 -5 17 -11 7 -11 10 -2 10 7 0
11 4 8 8 -2 4 -1 14 3 21 6 9 11 10 15 2 4 -6 3 -11 -1 -11 -5 0 -9 -13 -8
-28 0 -16 5 -29 12 -29 8 0 9 6 3 17 -5 9 -5 22 -1 29 10 15 2 53 -9 46 -4 -3
-7 9 -6 25 0 17 3 30 7 30 3 0 5 16 4 35 -1 19 1 35 4 35 3 0 6 11 6 25 0 14
-4 25 -10 25 -5 0 -22 6 -37 14 -17 9 -30 10 -36 4 -19 -19 -24 13 -6 40 15
23 15 25 1 14 -9 -8 -19 -22 -22 -32 -5 -15 -29 -20 -42 -10 -2 2 -12 4 -23 5
-11 1 -23 4 -27 5 -5 1 -11 2 -15 1 -5 0 -8 5 -8 12 0 8 -4 7 -10 -3 -5 -8
-10 -10 -10 -4 0 5 -10 10 -22 11 -21 1 -37 3 -113 18 -11 2 -20 4 -20 5 0 2
-9 4 -20 5 -11 1 -36 6 -55 9 -19 4 -40 8 -47 8 -7 1 -10 4 -8 8 2 3 -5 11
-15 18 -14 9 -19 8 -24 -3z m24 -15 c0 -5 -2 -10 -4 -10 -3 0 -8 5 -11 10 -3
6 -1 10 4 10 6 0 11 -4 11 -10z m-200 -424 c0 -2 -8 -10 -17 -17 -16 -13 -17
-12 -4 4 13 16 21 21 21 13z m248 -728 c-6 -28 -38 -31 -38 -5 0 8 3 8 9 -1 7
-11 9 -11 14 2 8 19 18 21 15 4z m792 -49 c0 11 4 10 14 -4 14 -20 11 -45 -6
-45 -5 0 -6 5 -3 10 3 6 -1 13 -9 16 -9 3 -16 14 -16 23 0 14 2 14 10 1 8 -13
10 -13 10 -1z m-153 -836 c-4 -3 -2 -12 3 -18 7 -8 4 -18 -10 -30 -12 -11 -20
-14 -21 -7 -1 7 -2 18 -3 25 -1 6 5 17 14 24 16 13 28 17 17 6z"/>
<path d="M1420 329 c0 -5 5 -7 10 -4 6 3 10 8 10 11 0 2 -4 4 -10 4 -5 0 -10
-5 -10 -11z"/>
<path d="M810 2419 c0 -5 -4 -8 -9 -4 -5 3 -13 0 -17 -6 -4 -7 -3 -9 4 -5 5 3
12 2 14 -4 2 -6 9 -1 16 10 7 12 8 20 2 20 -5 0 -10 -5 -10 -11z"/>
<path d="M908 2413 c7 -3 16 -2 19 1 4 3 -2 6 -13 5 -11 0 -14 -3 -6 -6z"/>
<path d="M1017 2399 c4 -13 8 -18 11 -10 2 7 -1 18 -6 23 -8 8 -9 4 -5 -13z"/>
<path d="M867 2396 c-4 -10 -1 -13 9 -9 7 3 14 9 14 14 0 14 -17 10 -23 -5z"/>
<path d="M905 2389 c-4 -5 -4 -13 -1 -16 3 -4 6 -1 6 6 0 8 8 6 25 -5 14 -9
28 -15 30 -12 2 2 -9 12 -25 21 -19 12 -31 14 -35 6z"/>
<path d="M956 2389 c3 -5 10 -7 15 -4 5 4 9 2 9 -4 0 -6 9 -15 20 -21 14 -7
20 -7 20 0 0 5 -6 10 -14 10 -8 0 -16 5 -18 12 -2 6 -12 12 -21 14 -9 1 -15
-2 -11 -7z"/>
<path d="M1150 2380 c-9 -6 -10 -10 -3 -10 6 0 15 5 18 10 8 12 4 12 -15 0z"/>
<path d="M1071 2371 c-8 -5 -20 -7 -28 -4 -7 3 -13 1 -13 -4 0 -5 13 -9 28 -8
16 0 29 5 29 12 0 7 -1 13 -1 13 -1 0 -7 -4 -15 -9z"/>
<path d="M1108 2373 c7 -3 16 -2 19 1 4 3 -2 6 -13 5 -11 0 -14 -3 -6 -6z"/>
<path d="M1162 2360 c-22 -18 -23 -48 -1 -34 5 3 7 10 4 15 -4 5 -2 9 3 9 6 0
12 7 16 15 7 19 6 19 -22 -5z"/>
<path d="M1105 2349 c-11 -16 -1 -19 13 -3 7 8 8 14 3 14 -5 0 -13 -5 -16 -11z"/>
<path d="M1216 2334 c-23 -22 -20 -31 3 -10 18 17 19 17 24 -1 4 -15 5 -16 6
-1 2 24 -15 31 -33 12z"/>
<path d="M1290 2330 c-9 -6 -10 -10 -3 -10 6 0 15 5 18 10 8 12 4 12 -15 0z"/>
<path d="M597 2319 c7 -7 15 -10 18 -7 3 3 -2 9 -12 12 -14 6 -15 5 -6 -5z"/>
<path d="M1260 2321 c0 -6 4 -13 10 -16 6 -3 7 1 4 9 -7 18 -14 21 -14 7z"/>
<path d="M566 2298 c3 -5 10 -6 15 -3 13 9 11 12 -6 12 -8 0 -12 -4 -9 -9z"/>
<path d="M1300 2300 c18 -12 30 -13 30 -2 0 4 -10 9 -22 9 -18 2 -20 0 -8 -7z"/>
<path d="M595 2290 c-3 -5 -4 -14 0 -19 3 -5 -2 -17 -11 -25 -8 -9 -11 -16 -5
-16 13 0 22 16 26 46 2 26 0 30 -10 14z"/>
<path d="M1304 2263 c4 -7 2 -21 -4 -32 -7 -15 -7 -22 2 -27 7 -4 10 -4 6 1
-4 4 -3 17 3 27 8 15 8 23 -2 32 -9 8 -10 8 -5 -1z"/>
<path d="M510 2197 c0 -2 6 -10 14 -16 11 -9 16 -9 22 1 4 7 4 10 -1 6 -4 -4
-14 -3 -22 3 -7 6 -13 9 -13 6z"/>
<path d="M549 2163 c-13 -16 -12 -17 4 -4 9 7 17 15 17 17 0 8 -8 3 -21 -13z"/>
<path d="M1286 2155 c-3 -8 1 -18 9 -22 13 -8 15 -12 15 -32 0 -19 36 -7 37
12 2 19 2 19 -12 1 -14 -18 -16 -17 -19 6 0 6 -8 15 -16 20 -10 7 -11 10 -2
10 6 0 12 5 12 10 0 15 -17 12 -24 -5z"/>
<path d="M495 2120 c3 -5 8 -10 11 -10 2 0 4 5 4 10 0 6 -5 10 -11 10 -5 0 -7
-4 -4 -10z"/>
<path d="M1250 1959 c0 -5 5 -7 10 -4 6 3 10 8 10 11 0 2 -4 4 -10 4 -5 0 -10
-5 -10 -11z"/>
<path d="M1310 1959 c0 -5 5 -7 10 -4 6 3 10 8 10 11 0 2 -4 4 -10 4 -5 0 -10
-5 -10 -11z"/>
<path d="M496 1937 c3 -10 9 -15 12 -12 3 3 0 11 -7 18 -10 9 -11 8 -5 -6z"/>
<path d="M1257 1938 c-15 -12 -14 -13 10 -14 16 -1 22 1 15 3 -6 3 -10 9 -6
14 7 12 1 11 -19 -3z"/>
<path d="M475 1921 c-3 -5 -2 -12 3 -15 5 -3 9 1 9 9 0 17 -3 19 -12 6z"/>
<path d="M1255 1901 c3 -5 -1 -16 -10 -24 -13 -13 -13 -16 1 -21 8 -3 12 -2 9
4 -3 6 -1 11 4 11 26 3 30 4 37 11 3 4 -3 6 -14 3 -15 -2 -19 0 -15 11 3 8 0
14 -7 14 -6 0 -9 -4 -5 -9z"/>
<path d="M1310 1885 c0 -8 2 -15 4 -15 2 0 6 7 10 15 3 8 1 15 -4 15 -6 0 -10
-7 -10 -15z"/>
<path d="M550 1859 c0 -5 5 -7 10 -4 6 3 10 8 10 11 0 2 -4 4 -10 4 -5 0 -10
-5 -10 -11z"/>
<path d="M1266 1843 c-6 -14 -5 -15 5 -6 7 7 10 15 7 18 -3 3 -9 -2 -12 -12z"/>
<path d="M1235 1821 c3 -5 1 -13 -5 -16 -13 -8 6 -35 23 -35 6 0 3 6 -8 13
-12 10 -14 16 -7 21 15 9 16 26 1 26 -5 0 -8 -4 -4 -9z"/>
<path d="M556 1797 c3 -10 9 -15 12 -12 3 3 0 11 -7 18 -10 9 -11 8 -5 -6z"/>
<path d="M1256 1802 c-3 -5 1 -9 9 -9 8 0 12 4 9 9 -3 4 -7 8 -9 8 -2 0 -6 -4
-9 -8z"/>
<path d="M1229 1734 c-18 -22 -22 -49 -4 -34 9 8 14 6 19 -6 3 -9 4 -19 2 -23
-3 -4 4 -7 14 -7 16 0 15 4 -7 32 -23 31 -23 33 -6 43 10 6 13 11 7 11 -6 0
-18 -7 -25 -16z"/>
<path d="M1275 1730 c-4 -6 -11 -7 -17 -4 -7 4 -8 2 -4 -5 6 -9 11 -9 22 0 14
11 18 19 10 19 -3 0 -8 -5 -11 -10z"/>
<path d="M1290 1678 c0 -11 12 -10 30 2 12 7 10 9 -8 7 -12 0 -22 -5 -22 -9z"/>
<path d="M1348 1663 c7 -3 16 -2 19 1 4 3 -2 6 -13 5 -11 0 -14 -3 -6 -6z"/>
<path d="M566 1643 c-6 -14 -5 -15 5 -6 7 7 10 15 7 18 -3 3 -9 -2 -12 -12z"/>
<path d="M598 1653 c7 -3 16 -2 19 1 4 3 -2 6 -13 5 -11 0 -14 -3 -6 -6z"/>
<path d="M1224 1638 c-3 -4 5 -5 18 -3 12 3 31 -3 42 -13 21 -17 21 -17 3 5
-18 21 -53 27 -63 11z"/>
<path d="M1313 1625 c0 -8 4 -12 9 -9 5 3 6 10 3 15 -9 13 -12 11 -12 -6z"/>
<path d="M613 1605 c0 -8 4 -12 9 -9 5 3 6 10 3 15 -9 13 -12 11 -12 -6z"/>
<path d="M1340 1566 c0 -2 8 -10 18 -17 15 -13 16 -12 3 4 -13 16 -21 21 -21
13z"/>
<path d="M668 1503 c7 -3 16 -2 19 1 4 3 -2 6 -13 5 -11 0 -14 -3 -6 -6z"/>
<path d="M1390 1496 c0 -2 8 -10 18 -17 15 -13 16 -12 3 4 -13 16 -21 21 -21
13z"/>
<path d="M685 1479 c-3 -4 2 -6 10 -5 21 3 28 13 10 13 -9 0 -18 -4 -20 -8z"/>
<path d="M655 1449 c-4 -6 -5 -12 -2 -15 2 -3 7 2 10 11 7 17 1 20 -8 4z"/>
<path d="M676 1434 c-18 -25 -18 -25 3 -12 12 7 21 18 21 25 0 18 -2 16 -24
-13z"/>
<path d="M1482 1404 c10 -10 20 -16 22 -13 3 3 -5 11 -17 18 -21 13 -21 12 -5
-5z"/>
<path d="M1433 1392 c9 -10 14 -21 11 -24 -3 -3 1 -9 8 -14 7 -4 10 -4 6 1 -4
4 -2 15 5 23 9 13 9 14 0 8 -7 -4 -13 -3 -13 2 0 6 -8 13 -17 16 -16 6 -16 6
0 -12z"/>
<path d="M1530 1340 c-9 -6 -10 -10 -3 -10 6 0 15 5 18 10 8 12 4 12 -15 0z"/>
<path d="M1495 1330 c-4 -6 -11 -8 -16 -5 -5 4 -9 2 -9 -4 0 -5 8 -9 18 -9 9
0 26 -2 37 -6 16 -6 15 -4 -3 6 -12 8 -19 17 -16 21 4 4 5 7 1 7 -3 0 -9 -5
-12 -10z"/>
<path d="M689 1318 c7 -9 10 -22 6 -29 -6 -8 -2 -8 14 0 23 13 29 36 7 28 -7
-3 -20 0 -27 6 -11 10 -11 9 0 -5z"/>
<path d="M1560 1300 c8 -5 20 -10 25 -10 6 0 3 5 -5 10 -8 5 -19 10 -25 10 -5
0 -3 -5 5 -10z"/>
<path d="M730 1282 c0 -5 7 -9 15 -9 8 0 12 4 9 9 -3 4 -9 8 -15 8 -5 0 -9 -4
-9 -8z"/>
<path d="M1527 1275 c-4 -8 -1 -17 5 -21 6 -4 8 -3 4 4 -3 6 -2 13 4 17 10 6
13 -3 13 -37 0 -14 3 -15 18 -7 11 5 19 15 18 22 0 9 -2 9 -6 0 -2 -7 -10 -13
-15 -13 -6 0 -8 3 -5 6 8 8 -11 44 -22 44 -5 0 -11 -7 -14 -15z"/>
<path d="M1644 1279 c-3 -6 -2 -15 3 -20 5 -5 9 -1 9 11 0 23 -2 24 -12 9z"/>
<path d="M694 1259 c-5 -9 -2 -10 9 -6 22 8 22 -2 0 -20 -16 -13 -16 -13 5 -3
13 6 22 16 19 23 -5 16 -24 20 -33 6z"/>
<path d="M1614 1235 c1 -8 6 -18 11 -22 4 -4 5 -3 2 4 -4 6 -2 13 5 15 8 3 6
6 -4 10 -10 4 -15 2 -14 -7z"/>
<path d="M720 1218 c-12 -8 -12 -9 2 -5 9 3 19 1 22 -6 3 -9 5 -9 5 0 1 18
-13 23 -29 11z"/>
<path d="M734 1155 c1 -11 4 -18 7 -15 4 3 17 -4 30 -15 l24 -20 -19 22 c-10
13 -22 20 -27 18 -4 -3 -9 3 -12 12 -3 14 -4 14 -3 -2z"/>
<path d="M1670 1166 c0 -2 7 -7 16 -10 8 -3 12 -2 9 4 -6 10 -25 14 -25 6z"/>
<path d="M1645 1133 c1 -10 8 -17 14 -15 7 1 11 -3 10 -10 -3 -25 1 -35 16
-35 8 0 15 4 15 9 0 4 -7 8 -16 8 -8 0 -13 4 -9 10 6 10 -15 50 -27 50 -3 0
-5 -8 -3 -17z"/>
<path d="M744 1095 c-18 -15 -18 -15 0 -8 13 4 17 3 12 -5 -5 -8 -1 -10 10 -5
11 4 13 8 6 11 -7 2 -10 8 -6 13 8 13 1 11 -22 -6z"/>
<path d="M1735 1101 c-3 -5 -2 -12 3 -15 5 -3 9 1 9 9 0 17 -3 19 -12 6z"/>
<path d="M1710 1075 c0 -8 4 -15 10 -15 5 0 7 7 4 15 -4 8 -8 15 -10 15 -2 0
-4 -7 -4 -15z"/>
<path d="M760 1058 c-12 -8 -11 -9 4 -4 15 5 17 2 12 -20 -4 -15 -3 -23 3 -20
9 6 43 -38 47 -60 3 -20 37 -53 48 -48 6 3 0 -3 -13 -14 l-23 -19 23 2 c32 3
42 -4 29 -20 -9 -11 -6 -16 12 -25 20 -10 21 -10 6 3 -12 9 -14 17 -7 24 7 7
5 14 -5 22 -8 7 -12 20 -9 28 5 13 2 15 -11 10 -12 -5 -16 -3 -13 5 2 7 10 12
16 10 7 -1 10 2 6 8 -5 8 -12 7 -23 -2 -13 -11 -15 -10 -9 4 4 13 2 15 -10 11
-10 -4 -14 -2 -10 4 4 6 -5 23 -18 39 -14 16 -25 37 -25 46 0 22 -13 29 -30
16z"/>
<path d="M1784 1048 c1 -7 -4 -20 -13 -30 -20 -23 -22 -45 -6 -58 9 -8 14 -7
18 4 4 9 2 18 -3 21 -6 4 -10 11 -10 17 0 6 7 5 18 -3 14 -11 15 -11 5 1 -10
11 -9 18 5 34 9 11 12 16 5 13 -6 -4 -14 -2 -16 3 -3 6 -4 5 -3 -2z"/>
<path d="M1714 1035 c3 -23 12 -26 13 -5 1 11 -2 20 -7 20 -4 0 -7 -7 -6 -15z"/>
<path d="M1743 1033 c0 -9 4 -10 14 -2 7 6 13 12 13 14 0 1 -6 2 -13 2 -8 0
-14 -6 -14 -14z"/>
<path d="M1814 982 c3 -5 1 -12 -5 -14 -7 -2 -10 -9 -8 -16 3 -8 9 -5 16 7 9
15 10 22 1 27 -6 4 -8 3 -4 -4z"/>
<path d="M796 967 c3 -10 9 -15 12 -12 3 3 0 11 -7 18 -10 9 -11 8 -5 -6z"/>
<path d="M1828 933 c7 -3 16 -2 19 1 4 3 -2 6 -13 5 -11 0 -14 -3 -6 -6z"/>
<path d="M1795 920 c3 -5 8 -10 11 -10 2 0 4 5 4 10 0 6 -5 10 -11 10 -5 0 -7
-4 -4 -10z"/>
<path d="M1860 920 c-9 -6 -10 -10 -3 -10 6 0 15 5 18 10 8 12 4 12 -15 0z"/>
<path d="M1836 891 c-3 -5 0 -14 8 -20 10 -9 17 -7 27 6 13 16 12 17 -3 5 -10
-8 -19 -9 -22 -3 -3 5 0 12 6 14 9 4 10 6 1 6 -6 1 -14 -3 -17 -8z"/>
<path d="M1945 880 c-4 -6 -10 -8 -15 -5 -5 3 -11 1 -14 -4 -8 -13 22 -7 36 7
7 7 9 12 6 12 -4 0 -10 -5 -13 -10z"/>
<path d="M1880 840 c-11 -7 -11 -10 -2 -10 7 0 11 -4 8 -9 -3 -4 5 -18 18 -30
15 -15 26 -19 31 -12 6 11 -1 15 -19 12 -5 -1 -6 5 -2 14 3 8 9 23 12 33 5 14
4 15 -5 2 -7 -10 -11 -11 -11 -2 0 14 -10 15 -30 2z m30 -21 c0 -5 -4 -9 -8
-9 -5 0 -9 7 -9 15 0 8 4 12 9 9 4 -3 8 -9 8 -15z"/>
<path d="M1950 780 c-8 -15 -8 -18 3 -14 8 3 14 11 14 19 0 20 -4 19 -17 -5z"/>
<path d="M2013 732 c0 -12 5 -22 9 -22 11 0 10 12 -2 30 -7 12 -9 10 -7 -8z"/>
<path d="M1966 722 c-2 -4 4 -8 14 -8 10 0 16 4 14 8 -3 4 -9 8 -14 8 -5 0
-11 -4 -14 -8z"/>
<path d="M2080 720 c-9 -6 -10 -10 -3 -10 6 0 15 5 18 10 8 12 4 12 -15 0z"/>
<path d="M950 696 c0 -2 8 -10 18 -17 15 -13 16 -12 3 4 -13 16 -21 21 -21 13z"/>
<path d="M2055 689 c-4 -6 -14 -8 -22 -5 -8 3 -11 1 -8 -4 9 -15 32 -12 39 5
6 17 0 20 -9 4z"/>
<path d="M1070 664 c0 -9 50 -51 54 -46 3 3 6 0 6 -5 0 -6 -6 -14 -12 -16 -10
-4 -10 -6 -1 -6 25 -2 25 23 -1 41 -14 11 -24 23 -21 27 2 4 -2 8 -10 8 -8 0
-15 -2 -15 -3z"/>
<path d="M941 641 c-8 -5 -9 -11 -3 -15 5 -3 12 1 16 9 6 17 6 18 -13 6z"/>
<path d="M1040 642 c0 -5 7 -9 15 -9 8 0 12 4 9 9 -3 4 -9 8 -15 8 -5 0 -9 -4
-9 -8z"/>
<path d="M972 615 c-2 -26 4 -30 26 -17 10 7 8 12 -6 25 -17 15 -18 15 -20 -8z"/>
<path d="M2045 599 c-4 -6 -13 -8 -19 -6 -7 3 -13 0 -13 -7 0 -6 8 -12 18 -12
10 0 17 5 16 11 -1 5 4 9 11 7 8 -1 11 2 7 8 -8 13 -12 13 -20 -1z"/>
<path d="M1135 580 c-3 -5 -1 -10 4 -10 6 0 11 5 11 10 0 6 -2 10 -4 10 -3 0
-8 -4 -11 -10z"/>
<path d="M1191 573 c-1 -17 16 -25 25 -12 4 7 3 9 -4 5 -5 -3 -13 0 -15 6 -4
9 -6 10 -6 1z"/>
<path d="M1010 559 c0 -5 5 -7 10 -4 6 3 10 8 10 11 0 2 -4 4 -10 4 -5 0 -10
-5 -10 -11z"/>
<path d="M1217 547 c-12 -15 -20 -18 -23 -9 -3 6 -10 12 -15 12 -5 0 -4 -8 2
-18 7 -10 18 -19 25 -19 7 0 11 4 8 9 -3 4 0 8 5 8 10 0 15 -14 12 -32 -2 -15
17 -8 23 8 8 20 -2 36 -16 28 -6 -4 -8 -1 -6 7 3 8 11 13 17 11 7 -1 10 2 6 8
-9 15 -18 12 -38 -13z"/>
<path d="M1087 539 c7 -7 15 -10 18 -7 3 3 -2 9 -12 12 -14 6 -15 5 -6 -5z"/>
<path d="M2050 540 c0 -5 5 -10 11 -10 5 0 7 5 4 10 -3 6 -8 10 -11 10 -2 0
-4 -4 -4 -10z"/>
<path d="M1138 528 c5 -5 16 -8 23 -6 8 3 3 7 -10 11 -17 4 -21 3 -13 -5z"/>
<path d="M1295 481 c3 -6 -3 -15 -14 -20 -24 -13 -34 -14 -27 -3 3 5 -1 9 -9
9 -19 0 -19 -2 2 -27 10 -11 24 -20 31 -20 11 0 12 3 3 14 -10 11 -8 16 8 21
21 6 30 35 10 35 -5 0 -8 -4 -4 -9z"/>
<path d="M1316 453 l-17 -28 19 22 c11 12 23 19 27 15 5 -4 5 -1 1 6 -10 17
-11 16 -30 -15z"/>
<path d="M1979 469 c0 -2 -2 -11 -4 -19 -1 -10 5 -16 16 -17 11 -1 19 2 19 6
0 9 -29 37 -31 30z"/>
<path d="M1975 410 c3 -5 8 -10 11 -10 2 0 4 5 4 10 0 6 -5 10 -11 10 -5 0 -7
-4 -4 -10z"/>
<path d="M1395 380 c-16 -7 -17 -9 -3 -9 9 -1 20 4 23 9 7 11 7 11 -20 0z"/>
<path d="M1965 380 c-3 -6 1 -7 9 -4 18 7 21 14 7 14 -6 0 -13 -4 -16 -10z"/>
<path d="M1226 345 c8 -35 10 -39 17 -28 3 5 -1 19 -9 33 l-14 25 6 -30z"/>
<path d="M1982 365 c3 -3 16 -8 28 -10 12 -2 20 -1 16 2 -4 4 -16 8 -28 10
-12 2 -19 1 -16 -2z"/>
<path d="M1960 350 c0 -5 -5 -9 -11 -7 -6 1 -13 -9 -14 -22 -2 -21 -1 -22 11
-7 9 13 13 14 17 4 2 -7 4 -1 4 15 0 15 -1 27 -3 27 -2 0 -4 -4 -4 -10z"/>
<path d="M1316 313 c-6 -14 -5 -15 5 -6 7 7 10 15 7 18 -3 3 -9 -2 -12 -12z"/>
<path d="M1986 298 c3 -5 10 -6 15 -3 13 9 11 12 -6 12 -8 0 -12 -4 -9 -9z"/>
<path d="M1546 202 c-3 -5 1 -9 9 -9 8 0 12 4 9 9 -3 4 -7 8 -9 8 -2 0 -6 -4
-9 -8z"/>
<path d="M1577 191 c-4 -17 -3 -21 5 -13 5 5 8 16 6 23 -3 8 -7 3 -11 -10z"/>
<path d="M1615 199 c-4 -6 -5 -12 -2 -15 2 -3 7 2 10 11 7 17 1 20 -8 4z"/>
<path d="M1714 199 c-4 -7 -3 -9 4 -5 5 3 13 0 15 -6 4 -9 6 -10 6 -1 1 17
-16 25 -25 12z"/>
<path d="M1826 183 c-6 -14 -5 -15 5 -6 7 7 10 15 7 18 -3 3 -9 -2 -12 -12z"/>
<path d="M1638 183 c7 -3 16 -2 19 1 4 3 -2 6 -13 5 -11 0 -14 -3 -6 -6z"/>
<path d="M1690 180 c0 -5 5 -10 11 -10 5 0 7 5 4 10 -3 6 -8 10 -11 10 -2 0
-4 -4 -4 -10z"/>
<path d="M1646 158 c3 -5 10 -6 15 -3 13 9 11 12 -6 12 -8 0 -12 -4 -9 -9z"/>
<path d="M1756 158 c3 -5 10 -6 15 -3 13 9 11 12 -6 12 -8 0 -12 -4 -9 -9z"/>
<path d="M1840 160 c-9 -6 -10 -10 -3 -10 6 0 15 5 18 10 8 12 4 12 -15 0z"/>
</g>
</svg>
